<svg width="469" height="649" viewBox="0 0 469 649" fill="none" xmlns="http://www.w3.org/2000/svg">
<path d="M1.18135 574.056C24.422 808.385 322.744 794.72 469 758.597L469 6.10352e-05C303.377 93.715 -22.0593 339.727 1.18135 574.056Z" fill="#358686" fill-opacity="0.5"/>
<rect x="41" y="573" width="18" height="18" rx="9" stroke="#F5F5F5" stroke-width="2"/>
<rect x="51" y="579" width="18" height="18" rx="9" stroke="#FDED3F" stroke-width="2"/>
<rect x="363" y="49" width="18" height="18" stroke="#3CA5A5" stroke-width="2"/>
<rect x="373" y="55" width="18" height="18" stroke="#F2CA51" stroke-width="2"/>
<path d="M420.976 526.082L422.606 531.101C422.807 531.719 423.383 532.137 424.033 532.137H429.311C429.795 532.137 429.996 532.757 429.604 533.042L425.335 536.144C424.809 536.526 424.589 537.203 424.79 537.821L426.421 542.84C426.57 543.301 426.043 543.684 425.651 543.399L421.382 540.297C420.856 539.915 420.144 539.915 419.618 540.297L415.349 543.399C414.957 543.684 414.43 543.301 414.579 542.84L416.21 537.821C416.411 537.203 416.191 536.526 415.665 536.144L411.396 533.042C411.004 532.757 411.205 532.137 411.689 532.137H416.967C417.617 532.137 418.193 531.719 418.394 531.101L420.024 526.082C420.174 525.621 420.826 525.621 420.976 526.082Z" stroke="#224949"/>
</svg>
